<svg width="203" height="64" viewBox="0 0 203 64" fill="none" xmlns="http://www.w3.org/2000/svg">
<path d="M98.3574 12.1739C98.6515 12.8436 98.4048 13.4711 98.1547 14.116C97.9195 14.7031 97.6632 15.2816 97.4097 15.8609C97.2152 16.3054 97.0219 16.7504 96.8284 17.1954C96.7889 17.2861 96.7493 17.3769 96.7086 17.4704C96.3255 18.3511 95.948 19.2341 95.5713 20.1175C95.0158 21.4198 94.4555 22.7199 93.8922 24.0188C93.4258 25.0943 92.9595 26.1698 92.4991 27.2479C92.4778 27.2978 92.4565 27.3477 92.4346 27.3991C92.3203 27.6667 92.2061 27.9344 92.092 28.2021C91.7512 29.0013 91.41 29.8003 91.0686 30.5993C91.0303 30.6889 90.9919 30.7786 90.9525 30.871C90.3494 32.2819 89.7416 33.6906 89.1309 35.0982C88.588 36.3498 88.0491 37.603 87.5136 38.8577C87.2089 39.5715 86.9028 40.2845 86.5939 40.9965C86.1682 41.9781 85.7479 42.9621 85.3277 43.9461C84.7331 45.338 84.1384 46.7299 83.5385 48.1195C83.475 48.2666 83.4116 48.4139 83.3484 48.5611C82.3347 50.9227 80.9853 52.8138 78.5921 53.9036C78.2401 54.0406 77.8862 54.136 77.5179 54.2161C77.4592 54.229 77.4006 54.2419 77.3401 54.2552C76.6239 54.4095 75.9025 54.5333 75.1805 54.6569C75.0266 54.6834 74.8728 54.71 74.719 54.7366C74.3051 54.808 73.8911 54.8789 73.4771 54.9497C73.2136 54.9947 72.9501 55.0398 72.6866 55.0849C65.707 56.279 58.7084 57.349 46.7983 59.1621C46.5534 59.1993 46.3085 59.2365 46.0636 59.2737C45.7618 59.3196 45.4599 59.3654 45.1581 59.4112C45.099 59.4202 45.0399 59.4292 44.979 59.4384C44.2979 59.5419 43.6167 59.6452 42.9355 59.7483C42.5131 59.8122 42.0907 59.8762 41.6682 59.9403C41.4112 59.9793 41.1542 60.0182 40.8972 60.0571C39.7561 60.2294 38.616 60.4063 37.477 60.5922C37.2964 60.6216 37.1156 60.6509 36.9349 60.6801C36.8758 60.6897 36.8166 60.6992 36.7556 60.7091C36.637 60.7283 36.5183 60.7474 36.3996 60.7666C36.1131 60.813 35.8268 60.8598 35.5406 60.9077C31.8825 61.5201 31.8825 61.5201 30.4435 60.5435C29.8138 60.0604 29.3554 59.5006 28.9678 58.8108C28.9341 58.7523 28.9003 58.6939 28.8655 58.6337C28.2924 57.572 28.0662 56.3007 27.7724 55.1392C27.7304 54.9744 27.6885 54.8095 27.6465 54.6447C27.5589 54.3002 27.4715 53.9557 27.3843 53.6112C27.2742 53.1766 27.1637 52.7422 27.053 52.3077C26.6332 50.659 26.2155 49.0106 25.8395 47.3512C25.7546 46.9798 25.6586 46.6128 25.5532 46.2468C25.3856 45.6632 25.2432 45.0749 25.103 44.4841C24.9518 43.8476 24.7957 43.2149 24.6143 42.5864C24.4126 41.8742 24.2484 41.1516 24.0789 40.4312C24.0542 40.3273 24.0295 40.2234 24.0048 40.1196C23.9832 40.0277 23.9616 39.9359 23.9394 39.8413C23.8871 39.643 23.8312 39.4572 23.7639 39.2646C23.5793 38.7205 23.4504 38.1595 23.3109 37.6025C23.2797 37.4785 23.2484 37.3544 23.2171 37.2304C23.1351 36.9054 23.0535 36.5803 22.9719 36.2552C22.889 35.9253 22.8059 35.5955 22.7227 35.2657C22.601 34.7826 22.4794 34.2994 22.358 33.8162C22.3456 33.7667 22.3332 33.7172 22.3203 33.6662C22.2847 33.5244 22.2492 33.3827 22.2137 33.2409C22.1999 33.187 22.1862 33.1331 22.1721 33.0776C22.0783 32.7075 22.0372 32.384 22.0401 32.0047C22.0404 31.9488 22.0408 31.893 22.0411 31.8354C22.0517 31.3197 22.1515 30.9259 22.406 30.4771C22.8993 30.0208 23.4672 29.8628 24.1285 29.8525C26.6318 29.9732 29.0871 31.2547 30.844 33.0153C31.8546 34.1456 32.3157 35.3465 32.5903 36.8184C32.6116 36.9292 32.6329 37.04 32.6544 37.1507C32.7109 37.4442 32.7665 37.7379 32.8218 38.0317C32.8682 38.2777 32.9154 38.5237 32.9625 38.7696C33.2267 40.1481 33.4829 41.5279 33.7284 42.9099C33.9676 44.2536 34.2333 45.5921 34.5002 46.9306C34.5347 47.104 34.5692 47.2774 34.6037 47.4508C34.7487 48.1797 34.8961 48.908 35.0466 49.6357C35.0643 49.7221 35.0821 49.8084 35.1004 49.8974C35.1483 50.1279 35.1975 50.358 35.2474 50.5881C35.2608 50.6529 35.2742 50.7177 35.288 50.7845C35.412 51.3413 35.6039 51.7919 36.0972 52.1175C36.5384 52.3386 37.0126 52.3538 37.4981 52.3414C37.5954 52.3391 37.6926 52.3368 37.7928 52.3345C37.8989 52.3315 38.0049 52.3285 38.1109 52.3255C38.2227 52.3226 38.3345 52.3198 38.4464 52.3169C38.7469 52.3092 39.0474 52.3007 39.3479 52.2921C39.5359 52.2867 39.7238 52.2814 39.9117 52.2762C42.2446 52.211 44.5743 52.1101 46.9039 51.9671C46.9841 51.9622 47.0643 51.9573 47.1469 51.9522C47.6757 51.9196 48.2045 51.8852 48.7331 51.8496C48.8323 51.843 48.8323 51.843 48.9335 51.8363C50.3798 51.815 50.3798 51.815 51.6318 51.215C51.7593 50.9987 51.8021 50.8331 51.8108 50.5831C51.8134 50.5173 51.816 50.4515 51.8187 50.3837C51.8208 50.3122 51.8229 50.2406 51.8251 50.1669C51.8279 50.0912 51.8307 50.0156 51.8335 49.9376C51.8426 49.6866 51.8507 49.4356 51.8587 49.1845C51.8649 49.0073 51.8711 48.8301 51.8774 48.6529C51.8966 48.1031 51.9143 47.5533 51.932 47.0035C51.9374 46.8379 51.9428 46.6724 51.9482 46.5068C51.9769 45.6222 52.0042 44.7375 52.0307 43.8528C52.049 43.2422 52.0678 42.6316 52.0867 42.021C52.0895 41.9307 52.0923 41.8404 52.0952 41.7474C52.1009 41.5636 52.1066 41.3797 52.1123 41.1958C52.1502 39.9758 52.1878 38.7558 52.2241 37.5357C52.2489 36.7018 52.2745 35.8679 52.3009 35.034C52.3147 34.5959 52.3282 34.1577 52.3408 33.7195C52.3525 33.3105 52.3653 32.9015 52.3787 32.4925C52.3834 32.3431 52.3878 32.1936 52.3918 32.0441C52.3974 31.8396 52.4042 31.6353 52.4113 31.4309C52.4132 31.343 52.4132 31.343 52.4152 31.2534C52.4443 30.5142 52.6943 29.936 53.2078 29.4054C54.666 28.1122 56.7354 27.8723 58.6074 27.8775C58.7837 27.8778 58.96 27.876 59.1363 27.8741C60.6096 27.868 62.3219 28.0379 63.4422 29.0952C63.9216 29.612 63.9608 29.9912 63.9551 30.6795C63.9346 31.2274 63.8245 31.7639 63.7251 32.3017C63.702 32.4307 63.6789 32.5598 63.656 32.6888C63.5936 33.0376 63.5301 33.3861 63.4665 33.7347C63.399 34.1052 63.3326 34.4759 63.266 34.8465C63.1391 35.5526 63.0112 36.2585 62.883 36.9643C62.7405 37.7495 62.5989 38.5348 62.4574 39.3202C62.2265 40.6023 61.9951 41.8844 61.7631 43.1663C61.7503 43.2374 61.7374 43.3086 61.7241 43.3819C61.5707 44.23 61.4163 45.0779 61.2608 45.9256C61.1907 46.3078 61.121 46.6901 61.0513 47.0724C60.9899 47.4094 60.9276 47.7462 60.8652 48.083C60.8343 48.2525 60.8034 48.422 60.7726 48.5915C60.7516 48.7027 60.7516 48.7027 60.7303 48.8162C60.5769 49.5627 60.5769 49.5627 60.7405 50.275C61.2612 50.5731 61.9142 50.4556 62.4804 50.3625C62.593 50.3451 62.593 50.3451 62.7079 50.3273C62.9544 50.2889 63.2006 50.2491 63.4469 50.2092C63.6214 50.1814 63.7959 50.1538 63.9704 50.1261C66.9859 49.6451 69.986 49.0912 72.9763 48.4723C73.2085 48.4245 73.441 48.3777 73.6735 48.331C73.903 48.2845 74.1322 48.2362 74.3614 48.188C74.4361 48.1732 74.5109 48.1583 74.5879 48.143C75.3239 47.983 76.0402 47.706 76.515 47.0963C76.7147 46.7832 76.8471 46.4521 76.9786 46.1057C77.0125 46.0198 77.0463 45.9339 77.0811 45.8453C77.1817 45.5895 77.2804 45.333 77.3789 45.0764C77.4792 44.8158 77.5803 44.5556 77.6814 44.2953C77.9204 43.6798 78.1587 43.0639 78.3963 42.4478C78.8039 41.3909 79.2154 40.3355 79.6287 39.2808C79.6917 39.1202 79.7546 38.9595 79.8176 38.7988C79.9113 38.5596 80.005 38.3204 80.0987 38.0812C80.4226 37.2545 80.7458 36.4275 81.0687 35.6005C81.0965 35.5292 81.1243 35.4578 81.153 35.3844C81.5691 34.3187 81.9844 33.2527 82.3994 32.1866C82.7964 31.1668 83.194 30.1474 83.5921 29.1281C83.6342 29.0202 83.6342 29.0202 83.6772 28.9102C83.9057 28.325 84.1343 27.7399 84.3629 27.1547C84.5625 26.6437 84.7621 26.1327 84.9617 25.6216C84.9896 25.5501 85.0175 25.4787 85.0463 25.405C85.4005 24.498 85.7543 23.5907 86.1075 22.6833C86.2084 22.4239 86.3094 22.1647 86.4106 21.9054C86.6126 21.3876 86.8145 20.8697 87.0128 20.3503C87.0694 20.2022 87.1262 20.0543 87.1832 19.9063C87.25 19.7324 87.3164 19.5583 87.382 19.3839C88.4375 16.6497 91.2379 14.8001 93.721 13.4733C93.903 13.3758 94.084 13.2765 94.2651 13.1774C97.392 11.4829 97.392 11.4829 98.3574 12.1739Z" fill="#F8B132"/>
<path d="M35.3468 13.4336C35.4134 13.4327 35.4801 13.4319 35.5487 13.431C36.8783 13.4365 38.1519 13.7982 39.4243 14.1479C44.4073 15.5124 49.4813 16.2805 54.6336 16.6204C54.692 16.6244 54.7503 16.6283 54.8104 16.6323C58.4845 16.8774 62.2176 16.8845 65.8906 16.6204C65.9572 16.6157 66.0239 16.6109 66.0926 16.606C70.2332 16.3075 74.3373 15.7213 78.3989 14.8617C81.8482 14.1384 81.8482 14.1384 83.0011 14.8907C83.2715 15.1654 83.4416 15.3841 83.4769 15.7741C83.4695 16.2859 83.2852 16.7488 83.1184 17.2268C83.0814 17.3351 83.0445 17.4433 83.0077 17.5517C82.6353 18.6417 82.2479 19.7267 81.8622 20.8121C81.4468 21.982 81.0403 23.1548 80.6371 24.329C80.1393 25.7784 79.6349 27.2253 79.1207 28.669C78.843 29.4496 78.5711 30.2317 78.3063 31.0167C78.2492 31.1852 78.192 31.3536 78.1349 31.5221C78.0525 31.7646 77.9706 32.0072 77.8901 32.2503C77.1767 34.4037 75.9523 35.9576 73.9117 37.0141C73.2111 37.3631 72.4988 37.624 71.7442 37.8284C71.6493 37.8549 71.6493 37.8549 71.5524 37.8819C70.4107 38.1551 68.9622 38.2149 67.9206 37.629C67.4812 37.3396 67.1864 36.9427 67.035 36.4371C66.9788 35.8742 67.0746 35.3982 67.2045 34.8505C67.225 34.7618 67.2455 34.6732 67.2667 34.5819C67.3119 34.3869 67.3574 34.1919 67.4032 33.9971C67.4772 33.6826 67.5502 33.3678 67.6231 33.0531C67.8841 31.928 68.1488 30.8039 68.415 29.6801C68.5678 29.0347 68.7201 28.3893 68.8722 27.7438C68.9853 27.2639 69.0992 26.7843 69.2137 26.3047C69.2857 26.0026 69.357 25.7004 69.428 25.3981C69.4615 25.2564 69.4953 25.1147 69.5294 24.973C69.5763 24.7781 69.6222 24.5829 69.6678 24.3876C69.6817 24.3308 69.6957 24.2739 69.71 24.2154C69.784 23.8929 69.8157 23.633 69.7179 23.3137C69.3541 23.0953 69.0637 23.0599 68.6374 23.0676C68.5855 23.0684 68.5336 23.0692 68.4802 23.0701C67.955 23.0821 67.4328 23.1264 66.9101 23.176C61.0273 23.7281 55.0307 23.6846 49.1543 23.0817C48.6505 23.0318 48.1513 23.0031 47.6453 23.0006C47.5918 23.0001 47.5384 22.9997 47.4833 22.9992C47.0866 23.0008 46.8006 23.0469 46.4536 23.2385C46.2774 23.5034 46.2851 23.5981 46.2888 23.9114C46.2894 23.96 46.2899 24.0085 46.2905 24.0585C46.3036 24.8839 46.3454 25.709 46.3818 26.5336C46.3934 26.7957 46.4046 27.0577 46.4159 27.3198C46.4354 27.7728 46.4551 28.2259 46.4749 28.6789C46.5061 29.3957 46.5368 30.1126 46.5674 30.8294C46.5779 31.0753 46.5884 31.3213 46.5989 31.5672C46.6029 31.6593 46.6029 31.6593 46.6069 31.7533C46.6367 32.4507 46.6666 33.148 46.6965 33.8453C46.7006 33.9408 46.7006 33.9408 46.7048 34.0382C46.7491 35.0707 46.794 36.1031 46.839 37.1356C46.8854 38.1981 46.931 39.2607 46.9759 40.3233C47.0036 40.9774 47.0319 41.6315 47.0609 42.2856C47.0808 42.7338 47.1 43.1821 47.1186 43.6304C47.1293 43.8886 47.1404 44.1467 47.1523 44.4048C47.165 44.6855 47.1766 44.9661 47.1879 45.2469C47.1938 45.3674 47.1938 45.3674 47.1999 45.4904C47.2403 46.5803 47.0564 47.5368 46.3703 48.4077C45.4847 49.3456 44.2574 49.7604 42.9869 49.7992C42.6165 49.8057 42.2462 49.8031 41.8758 49.8002C41.7376 49.7997 41.5994 49.7991 41.4611 49.7986C40.4469 49.7935 39.4329 49.776 38.419 49.7532C38.3535 49.7518 38.288 49.7503 38.2206 49.7488C37.1371 49.7238 36.0544 49.6815 34.9715 49.6357C34.5467 47.5235 34.1257 45.4107 33.7192 43.2949C33.7027 43.2094 33.6862 43.1238 33.6692 43.0357C33.6229 42.7949 33.5768 42.5542 33.5307 42.3134C33.5169 42.2418 33.5031 42.1702 33.4889 42.0963C33.4765 42.0313 33.4641 41.9662 33.4514 41.8991C33.4351 41.8141 33.4351 41.8141 33.4185 41.7274C33.3956 41.5887 33.3956 41.5887 33.3956 41.4383C34.0008 41.5066 34.6048 41.5749 35.2061 41.6733C35.7556 41.7588 36.2784 41.8187 36.7726 41.5135C37.085 41.0058 36.9176 40.3176 36.8254 39.7589C36.8149 39.6924 36.8044 39.6259 36.7936 39.5573C36.7586 39.3362 36.7227 39.1152 36.6869 38.8941C36.6614 38.7345 36.636 38.5748 36.6107 38.4151C36.5415 37.9804 36.4716 37.5459 36.4016 37.1113C36.3271 36.6482 36.2533 36.185 36.1794 35.7218C36.0541 34.9367 35.9284 34.1517 35.8024 33.3667C35.6294 32.2891 35.4569 31.2114 35.2846 30.1338C35.2385 29.8456 35.1925 29.5575 35.1464 29.2693C35.0087 28.4079 34.8709 27.5465 34.7332 26.6851C34.6724 26.3047 34.6116 25.9243 34.5508 25.5439C34.5056 25.2611 34.4604 24.9784 34.4152 24.6957C34.2505 23.665 34.0853 22.6344 33.9196 21.6038C33.8044 20.8868 33.6897 20.1698 33.5753 19.4527C33.5088 19.0357 33.442 18.6187 33.3747 18.2018C33.3127 17.818 33.2513 17.4341 33.1904 17.0502C33.1682 16.911 33.1458 16.7719 33.1231 16.6329C32.8428 14.9099 32.8428 14.9099 33.025 14.3408C33.5988 13.5432 34.4099 13.4217 35.3468 13.4336Z" fill="#E94E1A"/>
<path d="M3.25865 3.04905C4.39112 3.45464 5.39633 4.37189 6.26812 5.16979C6.38635 5.27781 6.50548 5.38487 6.62576 5.49059C7.03783 5.85382 7.43021 6.23477 7.81888 6.62279C7.86881 6.67248 7.91874 6.72217 7.97018 6.77337C8.30551 7.11045 8.62154 7.46 8.9305 7.82138C8.97017 7.86695 9.00984 7.91252 9.05071 7.95947C9.85059 8.8818 10.5291 9.87388 11.1819 10.9048C11.2154 10.9577 11.2489 11.0105 11.2834 11.065C12.2534 12.6189 12.6693 14.3532 13.1284 16.1053C13.2248 16.4723 13.3225 16.839 13.4201 17.2058C13.5448 17.6743 13.6694 18.1429 13.7936 18.6117C14.2316 20.2644 14.6782 21.9147 15.1255 23.5649C15.3314 24.3247 15.5371 25.0846 15.7427 25.8445C15.7884 26.0134 15.8341 26.1824 15.8798 26.3513C16.2023 27.5427 16.524 28.7342 16.8452 29.9259C16.9791 30.4222 17.113 30.9186 17.2469 31.4149C17.3521 31.8051 17.4573 32.1952 17.5623 32.5854C17.7643 33.336 17.9669 34.0864 18.1721 34.8361C18.2459 35.106 18.3194 35.376 18.3909 35.6466C18.4579 35.8992 18.5265 36.1513 18.5956 36.4033C18.6216 36.5046 18.6216 36.5046 18.6481 36.6079C18.8567 37.3512 19.2965 37.9609 19.9623 38.3549C20.4266 38.5961 20.8927 38.7317 21.4017 38.8422C21.5455 38.8757 21.6894 38.9094 21.8332 38.9431C22.0572 38.9952 22.2813 39.0462 22.5061 39.095C22.725 39.1428 22.9427 39.1943 23.1605 39.2465C23.2279 39.2601 23.2952 39.2738 23.3645 39.2879C23.8131 39.3996 23.8131 39.3996 23.9521 39.6242C24.0136 39.8019 24.0539 39.9753 24.0898 40.1598C24.119 40.2727 24.1485 40.3855 24.1783 40.4982C24.2068 40.6163 24.2349 40.7345 24.2628 40.8528C24.2782 40.9171 24.2937 40.9814 24.3096 41.0476C24.3586 41.2514 24.4072 41.4553 24.4557 41.6592C24.6519 42.4831 24.8529 43.3038 25.083 44.119C25.229 44.6385 25.3553 45.1619 25.4782 45.6874C25.6365 46.3566 25.7981 47.0232 25.9962 47.6818C26.0853 47.9861 26.1452 48.2889 26.196 48.6021C26.2092 48.683 26.2225 48.764 26.2361 48.8475C26.251 48.9398 26.251 48.9398 26.2662 49.0341C24.8622 48.9376 23.466 48.7982 22.0683 48.6345C21.9677 48.6228 21.8672 48.6111 21.7666 48.5994C19.4847 48.3337 19.4847 48.3337 18.3511 48.1774C18.2454 48.1628 18.1395 48.1485 18.0337 48.1345C16.6894 47.9552 15.6471 47.4541 14.634 46.5523C14.5567 46.4842 14.5567 46.4842 14.4778 46.4148C12.4728 44.5324 11.8145 41.7854 11.1293 39.2312C11.0272 38.8515 10.924 38.472 10.8209 38.0926C10.6928 37.6209 10.5648 37.1492 10.4372 36.6773C10.047 35.2348 9.6509 33.794 9.25337 32.3535C9.08483 31.7428 8.91664 31.1319 8.74846 30.5211C8.71139 30.3864 8.67431 30.2518 8.63723 30.1171C8.23373 28.6518 7.83156 27.1861 7.42957 25.7203C6.87431 23.6957 6.31788 21.6715 5.76047 19.6475C5.0026 16.8956 4.24599 14.1434 3.49142 11.3906C3.29778 10.6842 3.10392 9.97781 2.90962 9.27158C2.78743 8.82746 2.66538 8.38331 2.54344 7.93912C2.47322 7.68336 2.40292 7.42763 2.33243 7.17196C2.25621 6.89555 2.18035 6.61904 2.10452 6.34253C2.08225 6.26199 2.05998 6.18146 2.03703 6.09848C1.87363 5.50094 1.7849 4.94791 1.77766 4.32902C1.77548 4.26731 1.7733 4.20561 1.77106 4.14203C1.76649 3.70031 1.84499 3.44511 2.10129 3.08342C2.44201 2.91271 2.8962 2.96762 3.25865 3.04905Z" fill="#E94E1A"/>
<path d="M162.823 33.6795C162.883 33.6792 162.943 33.679 163.005 33.6787C163.132 33.6783 163.258 33.6782 163.385 33.6782C163.575 33.678 163.766 33.6767 163.956 33.6752C164.654 33.6729 165.315 33.7055 166.002 33.8425C166.107 34.1429 166.19 34.4387 166.255 34.7499C166.274 34.8396 166.293 34.9293 166.312 35.0218C166.333 35.1202 166.353 35.2186 166.374 35.317C166.396 35.4214 166.418 35.5258 166.44 35.6302C166.487 35.8545 166.534 36.0788 166.581 36.3031C166.655 36.6581 166.729 37.0131 166.804 37.368C166.949 38.0574 167.093 38.747 167.238 39.4365C167.422 40.314 167.606 41.1914 167.79 42.0687C167.864 42.4213 167.938 42.7738 168.012 43.1264C168.058 43.3461 168.104 43.5658 168.15 43.7854C168.171 43.8869 168.192 43.9884 168.214 44.09C168.313 44.5647 168.411 45.0358 168.554 45.4994C168.591 45.3559 168.591 45.3559 168.628 45.2095C168.863 44.2918 169.098 43.3742 169.333 42.4566C169.454 41.9853 169.574 41.514 169.695 41.0426C170.171 39.1836 170.647 37.3249 171.132 35.4683C171.158 35.3673 171.158 35.3673 171.185 35.2643C171.234 35.0779 171.283 34.8916 171.331 34.7053C171.346 34.651 171.36 34.5968 171.374 34.5408C171.43 34.3308 171.487 34.1239 171.556 33.9177C172.205 33.7624 172.844 33.744 173.508 33.7477C173.679 33.7485 173.851 33.7477 174.022 33.7468C174.716 33.7462 175.373 33.8016 176.058 33.9177C176.32 34.8407 176.561 35.767 176.786 36.6995C176.819 36.8335 176.851 36.9675 176.884 37.1015C176.97 37.4546 177.055 37.8078 177.141 38.1611C177.229 38.5256 177.318 38.8901 177.406 39.2547C177.442 39.4001 177.477 39.5455 177.512 39.6909C177.529 39.7624 177.547 39.8338 177.565 39.9075C177.617 40.122 177.669 40.3366 177.721 40.5512C177.911 41.3365 178.103 42.1216 178.297 42.9063C178.336 43.0664 178.375 43.2265 178.415 43.3866C178.467 43.5991 178.52 43.8114 178.572 44.0237C178.618 44.2094 178.664 44.3952 178.71 44.5811C178.723 44.633 178.736 44.6849 178.749 44.7385C178.808 44.9784 178.835 45.1744 178.835 45.4242C178.885 45.4242 178.934 45.4242 178.985 45.4242C178.994 45.33 179.003 45.2357 179.011 45.1386C179.058 44.7191 179.147 44.3131 179.241 43.9019C179.259 43.82 179.277 43.7381 179.296 43.6536C179.357 43.3838 179.418 43.114 179.479 42.8443C179.521 42.6545 179.564 42.4648 179.606 42.275C179.707 41.8259 179.808 41.3769 179.909 40.928C180.034 40.3754 180.158 39.8227 180.282 39.27C180.409 38.702 180.537 38.1341 180.665 37.5663C180.933 36.3757 181.198 35.1845 181.462 33.9929C181.57 33.9683 181.678 33.9437 181.786 33.9193C181.846 33.9056 181.906 33.892 181.968 33.8779C182.158 33.8381 182.342 33.8178 182.536 33.8087C182.605 33.8054 182.674 33.8021 182.745 33.7987C182.853 33.7948 182.853 33.7948 182.963 33.7908C183.076 33.7864 183.076 33.7864 183.191 33.7819C184.155 33.7503 185.091 33.8044 186.04 33.9929C185.991 34.4699 185.855 34.905 185.709 35.3605C185.683 35.4433 185.657 35.5262 185.63 35.6116C185.543 35.8854 185.456 36.1589 185.369 36.4324C185.323 36.5767 185.277 36.721 185.232 36.8653C184.749 38.3892 184.26 39.9112 183.771 41.433C183.363 42.7025 182.96 43.9736 182.559 45.2456C182.531 45.3351 182.503 45.4245 182.474 45.5167C182.215 46.3406 181.956 47.1646 181.697 47.9887C181.612 48.2607 181.526 48.5326 181.441 48.8046C181.384 48.9867 181.327 49.1689 181.269 49.3511C181.236 49.4584 181.202 49.5657 181.168 49.673C181.14 49.7647 181.111 49.8563 181.081 49.9508C181.011 50.1622 181.011 50.1622 180.936 50.3126C179.577 50.6424 177.691 50.6823 176.359 50.2374C176.291 50.0557 176.239 49.8844 176.191 49.6972C176.176 49.6403 176.161 49.5834 176.145 49.5248C176.095 49.3343 176.045 49.1435 175.996 48.9527C175.96 48.8183 175.925 48.6839 175.889 48.5495C175.794 48.1889 175.7 47.828 175.606 47.467C175.509 47.0959 175.411 46.7251 175.313 46.3542C175.176 45.8377 175.04 45.3212 174.905 44.8045C174.629 43.755 174.349 42.7068 174.066 41.6592C174 41.4133 173.934 41.1675 173.868 40.9216C173.773 40.5674 173.677 40.2132 173.582 39.859C173.427 40.1347 173.346 40.4283 173.259 40.7304C173.234 40.8165 173.234 40.8165 173.209 40.9043C173.153 41.0951 173.099 41.2861 173.044 41.4771C173.005 41.612 172.966 41.7469 172.927 41.8818C172.822 42.2423 172.718 42.603 172.614 42.9637C172.508 43.3342 172.4 43.7046 172.293 44.0751C172.145 44.5879 171.997 45.1008 171.849 45.6137C171.538 46.6885 171.226 47.7627 170.913 48.8367C170.87 48.985 170.827 49.1334 170.783 49.2818C170.691 49.6003 170.598 49.9188 170.505 50.2374C169.8 50.3585 169.117 50.4118 168.403 50.4074C168.249 50.4066 168.095 50.4074 167.941 50.4083C166.422 50.4099 166.422 50.4099 165.927 50.1622C165.868 50.0177 165.868 50.0177 165.811 49.8241C165.789 49.7508 165.767 49.6775 165.744 49.6019C165.721 49.5206 165.697 49.4393 165.672 49.3555C165.647 49.2701 165.622 49.1847 165.595 49.0967C165.525 48.8598 165.455 48.6226 165.385 48.3854C165.31 48.1309 165.235 47.8765 165.159 47.6221C165.013 47.1315 164.868 46.6406 164.724 46.1497C164.612 45.7699 164.5 45.3902 164.387 45.0105C164.356 44.9048 164.325 44.7992 164.294 44.6935C164.278 44.6411 164.263 44.5888 164.247 44.5349C163.988 43.6615 163.731 42.788 163.473 41.9144C163.15 40.8186 162.827 39.723 162.503 38.6275C162.461 38.4858 162.419 38.3441 162.377 38.2024C162.213 37.648 162.049 37.0936 161.885 36.5393C161.789 36.2171 161.694 35.895 161.598 35.5728C161.563 35.4539 161.528 35.3349 161.493 35.216C161.444 35.0531 161.396 34.8901 161.348 34.7272C161.321 34.6357 161.294 34.5443 161.266 34.4501C161.215 34.2732 161.167 34.0968 161.124 33.9177C161.682 33.7082 162.235 33.6804 162.823 33.6795Z" fill="black"/>
<path d="M129.853 26.7215C129.92 26.7241 129.986 26.7267 130.054 26.7294C130.57 26.7557 131.038 26.8371 131.556 26.9236C131.556 29.7032 131.556 32.4828 131.556 35.3466C131.913 34.99 131.913 34.99 132.264 34.6275C133.365 33.5784 134.667 33.27 136.149 33.2857C137.713 33.3285 139.09 33.7917 140.184 34.9442C140.598 35.4246 140.827 35.9415 141.031 36.5358C141.058 36.6159 141.058 36.6159 141.087 36.6977C141.373 37.5836 141.409 38.4829 141.404 39.4062C141.404 39.5234 141.404 39.6406 141.404 39.7579C141.404 40.0729 141.403 40.388 141.402 40.703C141.401 41.0334 141.401 41.3638 141.401 41.6943C141.401 42.3185 141.399 42.9428 141.398 43.5671C141.396 44.2784 141.395 44.9898 141.395 45.7011C141.393 47.1631 141.39 48.625 141.387 50.0869C141.158 50.1117 140.929 50.1364 140.7 50.1609C140.635 50.1679 140.571 50.1749 140.504 50.1821C140.075 50.2279 139.652 50.2617 139.22 50.2562C139.16 50.2558 139.1 50.2555 139.038 50.2551C137.023 50.2256 137.023 50.2256 136.809 50.0117C136.802 49.885 136.801 49.758 136.802 49.6311C136.802 49.5485 136.802 49.466 136.802 49.381C136.803 49.2896 136.804 49.1983 136.804 49.1041C136.805 48.9573 136.805 48.8105 136.806 48.6636C136.807 48.5051 136.807 48.3467 136.808 48.1882C136.81 47.8571 136.811 47.526 136.812 47.1949C136.814 46.2531 136.817 45.3113 136.822 44.3695C136.825 43.8498 136.826 43.3302 136.827 42.8105C136.828 42.5359 136.829 42.2613 136.831 41.9867C136.927 39.8313 136.927 39.8313 136.092 37.9163C135.659 37.5039 135.163 37.3683 134.577 37.3443C133.809 37.3668 133.032 37.6058 132.457 38.1293C131.261 39.4628 131.457 41.4766 131.45 43.1448C131.448 43.3436 131.447 43.5425 131.445 43.7413C131.442 44.2076 131.439 44.6739 131.437 45.1403C131.434 45.6721 131.43 46.2039 131.426 46.7358C131.419 47.8277 131.412 48.9197 131.406 50.0117C130.691 50.1209 130.005 50.1857 129.281 50.181C129.149 50.1818 129.149 50.1818 129.013 50.1827C128.504 50.1816 128.011 50.1487 127.506 50.0857C127.418 50.0751 127.418 50.0751 127.329 50.0642C127.187 50.0469 127.045 50.0294 126.903 50.0117C126.893 44.924 126.903 39.8366 126.932 34.7489C126.935 34.253 126.938 33.757 126.94 33.2611C126.944 32.65 126.947 32.0388 126.951 31.4277C126.953 31.1128 126.955 30.798 126.956 30.4832C126.969 28.0357 126.969 28.0357 127.053 26.9236C127.968 26.6736 128.913 26.6824 129.853 26.7215Z" fill="black"/>
<path d="M107.063 35.0411C108.584 36.5773 109.131 38.6854 109.131 40.7953C109.131 40.9668 109.133 41.1382 109.134 41.3096C109.134 41.4211 109.134 41.5325 109.134 41.6439C109.135 41.6939 109.136 41.744 109.136 41.7955C109.134 42.2543 109.053 42.6211 108.967 43.0928C105.549 43.0928 102.132 43.0928 98.6107 43.0928C98.7835 44.1319 98.9737 44.9627 99.8115 45.6498C99.9995 45.7734 100.193 45.8808 100.393 45.9835C100.439 46.0075 100.486 46.0314 100.534 46.056C101.349 46.4417 102.2 46.5153 103.09 46.5053C103.239 46.5041 103.239 46.5041 103.39 46.503C104.673 46.4826 105.804 46.2149 107.026 45.8381C107.166 45.8002 107.166 45.8002 107.316 45.8002C107.868 46.9314 108.186 48.0708 108.142 49.3349C104.939 50.4352 101.106 50.7669 97.9714 49.2852C97.4313 49.0087 96.9612 48.6868 96.5094 48.282C96.4469 48.2265 96.3844 48.1709 96.32 48.1137C94.8491 46.728 94.1807 44.6267 94.0986 42.6408C94.0352 39.9752 94.463 37.3762 96.3497 35.364C96.4287 35.2809 96.4287 35.2809 96.5094 35.1962C96.549 35.151 96.5886 35.1057 96.6293 35.059C97.7776 33.7965 99.5435 33.2471 101.195 33.1046C103.401 33.0103 105.426 33.4663 107.063 35.0411ZM99.455 37.5793C98.9572 38.1878 98.6107 39.0676 98.6107 39.859C101.694 39.8962 101.694 39.8962 104.84 39.9342C104.84 38.9522 104.599 38.103 103.939 37.3581C103.272 36.7098 102.581 36.5824 101.682 36.5948C100.777 36.6268 100.085 36.9139 99.455 37.5793Z" fill="black"/>
<path d="M157.672 35.2714C157.719 35.3122 157.766 35.3529 157.814 35.3948C159.521 36.9809 160.071 39.4425 160.158 41.6798C160.202 44.0481 159.648 46.4759 158.047 48.282C158.002 48.3335 157.957 48.385 157.91 48.438C156.746 49.6837 155.031 50.3951 153.343 50.4763C150.721 50.5171 148.549 50.2573 146.565 48.3572C145.497 47.2323 144.919 45.7197 144.614 44.2209C144.597 44.1375 144.58 44.0542 144.562 43.9683C144.32 42.5046 144.378 40.9311 144.689 39.483C144.701 39.4263 144.713 39.3696 144.726 39.3111C145.024 37.9742 145.584 36.7532 146.49 35.7227C146.544 35.6612 146.598 35.5997 146.653 35.5364C149.399 32.6086 154.761 32.6881 157.672 35.2714ZM150.017 37.9788C148.888 39.4691 148.885 41.7675 149.104 43.5453C149.261 44.656 149.561 45.8004 150.473 46.5311C151.29 47.0751 152.261 47.1166 153.207 46.96C153.95 46.7466 154.465 46.2913 154.846 45.6253C155.455 44.4561 155.522 43.2397 155.529 41.9459C155.529 41.8889 155.53 41.8318 155.53 41.773C155.537 40.3311 155.367 38.7839 154.323 37.7024C153.65 37.0743 152.871 36.9627 151.979 36.9812C151.15 37.0201 150.562 37.3601 150.017 37.9788Z" fill="black"/>
<path d="M118.367 33.2221C118.42 33.222 118.473 33.222 118.528 33.2219C120.151 33.2244 121.813 33.4571 123.301 34.1434C123.272 35.2978 122.89 36.4184 122.4 37.4524C122.361 37.4405 122.322 37.4286 122.281 37.4163C122.153 37.3777 122.026 37.3395 121.898 37.3014C121.715 37.2464 121.533 37.1903 121.35 37.1334C120.054 36.7331 118.535 36.4004 117.222 36.926C116.936 37.0942 116.747 37.2933 116.622 37.6028C116.595 37.7821 116.595 37.7821 116.598 37.9694C116.596 38.0622 116.596 38.0622 116.595 38.1569C116.63 38.416 116.711 38.5821 116.847 38.8061C117.595 39.3356 118.543 39.5466 119.412 39.7899C120.838 40.1921 122.474 40.7992 123.258 42.1495C123.854 43.3562 123.974 44.9545 123.608 46.2515C123.041 47.8151 122.001 48.8785 120.503 49.5931C119.744 49.9248 118.944 50.14 118.123 50.2374C118.053 50.2457 117.984 50.254 117.912 50.2626C115.766 50.4785 113.599 50.2038 111.594 49.4101C111.632 48.4224 111.864 47.4819 112.189 46.5523C112.207 46.5005 112.224 46.4487 112.241 46.3953C112.321 46.1794 112.373 46.0496 112.582 45.9424C112.886 45.9542 113.139 46.0515 113.423 46.1575C114.268 46.4562 115.124 46.6523 116.021 46.7027C116.078 46.7067 116.134 46.7106 116.192 46.7147C117.109 46.7498 118.11 46.5541 118.873 46.0258C119.178 45.6788 119.262 45.49 119.272 45.0294C119.275 44.9452 119.277 44.8611 119.28 44.7744C119.241 44.4605 119.142 44.3189 118.948 44.0705C118.188 43.5512 117.263 43.3328 116.389 43.0867C115.74 42.9028 115.117 42.6999 114.506 42.4127C114.429 42.3768 114.43 42.3768 114.351 42.34C113.398 41.8747 112.65 41.218 112.246 40.2162C111.79 38.8303 111.857 37.2624 112.494 35.9483C113.247 34.6394 114.469 33.8631 115.903 33.4715C116.731 33.2716 117.517 33.2228 118.367 33.2221Z" fill="black"/>
<path d="M194.145 33.6686C194.195 33.6688 194.246 33.6689 194.298 33.6691C195.929 33.6774 197.601 33.9081 199.098 34.5946C198.984 35.7624 198.68 36.8349 198.197 37.9036C198.158 37.8917 198.118 37.8798 198.078 37.8675C197.95 37.829 197.822 37.7907 197.694 37.7526C197.512 37.6978 197.331 37.6417 197.15 37.5846C195.869 37.1862 194.314 36.8446 193.019 37.3772C192.726 37.5631 192.529 37.7207 192.418 38.054C192.406 38.1868 192.399 38.3202 192.395 38.4536C192.392 38.5231 192.389 38.5926 192.387 38.6642C192.429 38.956 192.531 39.1067 192.719 39.3325C193.495 39.8263 194.461 40.0348 195.339 40.2823C196.754 40.6875 198.325 41.3017 199.076 42.658C199.703 44.0213 199.752 45.67 199.248 47.0787C198.568 48.6551 197.364 49.6039 195.82 50.2447C193.187 51.2672 189.959 50.8388 187.39 49.8613C187.411 48.7986 187.65 47.3937 188.216 46.4771C188.515 46.3354 188.757 46.439 189.051 46.5443C189.108 46.5655 189.165 46.5868 189.224 46.6087C190.074 46.9079 190.915 47.1083 191.818 47.1539C191.876 47.1579 191.934 47.1619 191.994 47.166C192.909 47.2011 193.909 47.004 194.67 46.4771C195.029 46.0787 195.069 45.7744 195.06 45.2529C195.036 44.9284 194.959 44.721 194.714 44.5023C193.984 43.9889 193.036 43.7719 192.191 43.5272C190.732 43.1042 189.103 42.6263 188.291 41.2127C187.641 39.9509 187.588 38.4292 187.991 37.0764C188.247 36.3609 188.652 35.7978 189.191 35.2714C189.236 35.2246 189.28 35.1778 189.326 35.1295C190.557 33.9199 192.507 33.6614 194.145 33.6686Z" fill="black"/>
</svg>
