<svg width="48" height="48" viewBox="0 0 48 48" fill="none" xmlns="http://www.w3.org/2000/svg">
<path d="M46.2175 14.8924C46.353 15.1977 46.2393 15.4838 46.1241 15.7778C46.0157 16.0455 45.8976 16.3092 45.7808 16.5733C45.6912 16.776 45.6021 16.9788 45.513 17.1817C45.4948 17.223 45.4766 17.2644 45.4578 17.3071C45.2813 17.7085 45.1073 18.1111 44.9338 18.5139C44.6778 19.1075 44.4197 19.7003 44.1601 20.2924C43.9452 20.7827 43.7304 21.2731 43.5182 21.7646C43.5084 21.7873 43.4986 21.8101 43.4885 21.8335C43.4358 21.9555 43.3832 22.0775 43.3306 22.1996C43.1736 22.5639 43.0164 22.9282 42.8591 23.2924C42.8414 23.3333 42.8238 23.3742 42.8056 23.4163C42.5277 24.0595 42.2477 24.7018 41.9663 25.3435C41.7161 25.914 41.4679 26.4854 41.2211 27.0574C41.0807 27.3828 40.9397 27.7079 40.7974 28.0324C40.6012 28.4799 40.4075 28.9285 40.2139 29.3771C39.94 30.0117 39.6659 30.6462 39.3895 31.2798C39.3603 31.3468 39.3311 31.414 39.302 31.4811C38.8349 32.5577 38.2131 33.4199 37.1104 33.9167C36.9482 33.9792 36.7852 34.0226 36.6155 34.0592C36.5884 34.0651 36.5614 34.0709 36.5336 34.077C36.2035 34.1473 35.8712 34.2038 35.5385 34.2601C35.4676 34.2722 35.3967 34.2843 35.3258 34.2965C35.1351 34.329 34.9444 34.3613 34.7536 34.3936C34.6322 34.4141 34.5108 34.4347 34.3894 34.4552C31.1735 34.9996 27.9488 35.4874 22.4611 36.314C22.3482 36.331 22.2354 36.3479 22.1226 36.3649C21.9835 36.3858 21.8444 36.4067 21.7053 36.4276C21.6781 36.4317 21.6509 36.4358 21.6228 36.44C21.309 36.4871 20.9951 36.5342 20.6813 36.5812C20.4866 36.6104 20.292 36.6396 20.0974 36.6688C19.9789 36.6866 19.8605 36.7043 19.7421 36.722C19.2163 36.8006 18.691 36.8812 18.1662 36.966C18.083 36.9794 17.9997 36.9927 17.9164 37.0061C17.8892 37.0104 17.8619 37.0148 17.8338 37.0193C17.7791 37.028 17.7245 37.0368 17.6698 37.0455C17.5378 37.0666 17.4058 37.088 17.274 37.1098C15.5885 37.389 15.5885 37.389 14.9255 36.9438C14.6353 36.7236 14.4241 36.4683 14.2455 36.1539C14.23 36.1272 14.2144 36.1006 14.1984 36.0731C13.9343 35.5891 13.8301 35.0095 13.6947 34.48C13.6754 34.4049 13.656 34.3297 13.6367 34.2545C13.5963 34.0975 13.5561 33.9405 13.5159 33.7834C13.4652 33.5853 13.4142 33.3872 13.3632 33.1891C13.1698 32.4375 12.9773 31.686 12.8041 30.9295C12.765 30.7602 12.7207 30.5929 12.6722 30.426C12.595 30.16 12.5293 29.8917 12.4647 29.6224C12.3951 29.3323 12.3231 29.0438 12.2396 28.7573C12.1466 28.4326 12.071 28.1032 11.9929 27.7747C11.9815 27.7274 11.9701 27.68 11.9587 27.6326C11.9488 27.5908 11.9389 27.5489 11.9286 27.5058C11.9045 27.4154 11.8788 27.3307 11.8477 27.2429C11.7627 26.9948 11.7033 26.7391 11.639 26.4851C11.6246 26.4286 11.6102 26.372 11.5958 26.3155C11.558 26.1673 11.5204 26.0191 11.4828 25.8709C11.4446 25.7205 11.4063 25.5702 11.368 25.4198C11.3119 25.1996 11.2559 24.9793 11.2 24.759C11.1942 24.7364 11.1885 24.7139 11.1826 24.6906C11.1662 24.626 11.1498 24.5613 11.1335 24.4967C11.1271 24.4721 11.1208 24.4476 11.1143 24.4223C11.0711 24.2535 11.0521 24.106 11.0535 23.9331C11.0536 23.9077 11.0538 23.8822 11.0539 23.856C11.0588 23.6209 11.1048 23.4413 11.2221 23.2367C11.4494 23.0287 11.711 22.9567 12.0157 22.952C13.1692 23.007 14.3005 23.5912 15.11 24.3939C15.5756 24.9092 15.7881 25.4567 15.9146 26.1277C15.9244 26.1782 15.9342 26.2287 15.9441 26.2792C15.9702 26.413 15.9958 26.5469 16.0212 26.6808C16.0427 26.793 16.0644 26.9051 16.0861 27.0172C16.2078 27.6457 16.3259 28.2747 16.439 28.9047C16.5492 29.5173 16.6716 30.1275 16.7946 30.7377C16.8105 30.8168 16.8264 30.8958 16.8423 30.9749C16.9091 31.3072 16.977 31.6392 17.0464 31.971C17.0545 32.0104 17.0627 32.0497 17.0712 32.0903C17.0932 32.1954 17.1159 32.3003 17.1389 32.4052C17.1451 32.4347 17.1512 32.4643 17.1576 32.4947C17.2147 32.7486 17.3031 32.954 17.5305 33.1024C17.7337 33.2032 17.9522 33.2102 18.1759 33.2045C18.2207 33.2035 18.2656 33.2024 18.3117 33.2013C18.3606 33.2 18.4094 33.1986 18.4583 33.1972C18.5098 33.1959 18.5613 33.1946 18.6129 33.1933C18.7513 33.1898 18.8898 33.186 19.0282 33.182C19.1148 33.1796 19.2014 33.1772 19.288 33.1748C20.3629 33.145 21.4364 33.0991 22.5097 33.0339C22.5467 33.0316 22.5836 33.0294 22.6217 33.0271C22.8654 33.0122 23.109 32.9965 23.3526 32.9803C23.3983 32.9773 23.3983 32.9773 23.4449 32.9742C24.1113 32.9645 24.1113 32.9645 24.6882 32.691C24.7469 32.5924 24.7667 32.5169 24.7706 32.4029C24.7718 32.3729 24.773 32.3429 24.7743 32.312C24.7753 32.2794 24.7762 32.2468 24.7772 32.2132C24.7785 32.1787 24.7798 32.1442 24.7811 32.1086C24.7853 31.9942 24.789 31.8798 24.7927 31.7653C24.7956 31.6845 24.7984 31.6037 24.8013 31.5229C24.8102 31.2723 24.8184 31.0217 24.8265 30.771C24.829 30.6955 24.8315 30.62 24.8339 30.5446C24.8472 30.1413 24.8598 29.7379 24.872 29.3346C24.8804 29.0562 24.889 28.7779 24.8978 28.4995C24.8991 28.4583 24.9004 28.4172 24.9017 28.3748C24.9043 28.291 24.9069 28.2071 24.9096 28.1233C24.927 27.5671 24.9444 27.0109 24.9611 26.4547C24.9725 26.0745 24.9843 25.6943 24.9965 25.3142C25.0028 25.1144 25.0091 24.9147 25.0149 24.7149C25.0203 24.5285 25.0261 24.342 25.0323 24.1555C25.0345 24.0874 25.0365 24.0193 25.0384 23.9511C25.0409 23.8579 25.0441 23.7647 25.0473 23.6715C25.0482 23.6315 25.0482 23.6315 25.0491 23.5906C25.0625 23.2536 25.1777 22.99 25.4143 22.7481C26.0862 22.1586 27.0397 22.0492 27.9023 22.0516C27.9835 22.0517 28.0647 22.0509 28.1459 22.05C28.8248 22.0472 29.6138 22.1247 30.1299 22.6067C30.3508 22.8423 30.3689 23.0152 30.3662 23.329C30.3568 23.5788 30.3061 23.8234 30.2603 24.0686C30.2496 24.1274 30.239 24.1862 30.2284 24.245C30.1997 24.404 30.1705 24.5629 30.1411 24.7218C30.11 24.8907 30.0794 25.0597 30.0488 25.2287C29.9903 25.5506 29.9314 25.8724 29.8723 26.1942C29.8066 26.5521 29.7414 26.9102 29.6762 27.2682C29.5698 27.8527 29.4632 28.4372 29.3563 29.0216C29.3504 29.0541 29.3444 29.0865 29.3383 29.1199C29.2676 29.5066 29.1965 29.8931 29.1249 30.2796C29.0925 30.4538 29.0604 30.6281 29.0283 30.8024C29 30.956 28.9713 31.1096 28.9426 31.2631C28.9283 31.3404 28.9141 31.4177 28.8999 31.4949C28.8902 31.5457 28.8902 31.5457 28.8804 31.5974C28.8097 31.9377 28.8097 31.9377 28.8851 32.2624C29.125 32.3984 29.4259 32.3448 29.6868 32.3023C29.7387 32.2944 29.7387 32.2944 29.7916 32.2863C29.9052 32.2688 30.0186 32.2506 30.1321 32.2324C30.2125 32.2198 30.2929 32.2072 30.3733 32.1946C31.7628 31.9753 33.145 31.7228 34.5229 31.4406C34.6299 31.4188 34.737 31.3975 34.8441 31.3762C34.9499 31.355 35.0555 31.333 35.1611 31.311C35.1955 31.3042 35.23 31.2975 35.2654 31.2905C35.6046 31.2175 35.9346 31.0912 36.1534 30.8133C36.2454 30.6706 36.3064 30.5196 36.367 30.3617C36.3826 30.3225 36.3982 30.2834 36.4142 30.243C36.4605 30.1264 36.506 30.0094 36.5514 29.8924C36.5976 29.7736 36.6442 29.655 36.6908 29.5363C36.8009 29.2557 36.9107 28.975 37.0202 28.6941C37.208 28.2122 37.3976 27.7311 37.5881 27.2503C37.6171 27.177 37.6461 27.1038 37.6751 27.0305C37.7182 26.9215 37.7614 26.8124 37.8046 26.7034C37.9539 26.3265 38.1027 25.9495 38.2515 25.5724C38.2644 25.5399 38.2772 25.5074 38.2904 25.4739C38.4821 24.9881 38.6735 24.5021 38.8647 24.0161C39.0476 23.5512 39.2308 23.0864 39.4142 22.6217C39.4336 22.5725 39.4336 22.5725 39.4534 22.5224C39.5587 22.2556 39.664 21.9888 39.7694 21.7221C39.8613 21.4891 39.9533 21.2561 40.0453 21.0231C40.0581 20.9906 40.071 20.958 40.0842 20.9244C40.2475 20.5109 40.4105 20.0973 40.5732 19.6836C40.6197 19.5653 40.6663 19.4471 40.7129 19.329C40.8059 19.0929 40.899 18.8568 40.9903 18.62C41.0164 18.5525 41.0426 18.485 41.0689 18.4176C41.0997 18.3383 41.1302 18.2589 41.1605 18.1794C41.6468 16.9329 42.9371 16.0897 44.0812 15.4848C44.1651 15.4404 44.2485 15.3951 44.3319 15.3499C45.7727 14.5774 45.7727 14.5774 46.2175 14.8924Z" fill="#F8B132"/>
<path d="M17.2777 15.4655C17.8904 15.4681 18.4772 15.633 19.0634 15.7924C21.3594 16.4144 23.6973 16.7646 26.0713 16.9196C26.0982 16.9214 26.1251 16.9232 26.1528 16.925C27.8456 17.0367 29.5657 17.04 31.2581 16.9196C31.2888 16.9174 31.3195 16.9153 31.3511 16.913C33.259 16.7769 35.15 16.5096 37.0214 16.1178C38.6107 15.788 38.6107 15.788 39.1419 16.131C39.2665 16.2562 39.3449 16.3559 39.3612 16.5337C39.3577 16.7671 39.2728 16.9781 39.196 17.196C39.1789 17.2454 39.1619 17.2947 39.145 17.3441C38.9734 17.8411 38.7949 18.3357 38.6172 18.8305C38.4258 19.3639 38.2385 19.8986 38.0527 20.4339C37.8233 21.0946 37.5909 21.7543 37.354 22.4124C37.2261 22.7683 37.1008 23.1249 36.9788 23.4828C36.9524 23.5595 36.9261 23.6363 36.8997 23.7131C36.8618 23.8237 36.8241 23.9343 36.787 24.0451C36.4583 25.0268 35.8941 25.7353 34.9539 26.2169C34.6311 26.376 34.3029 26.495 33.9552 26.5882L33.8668 26.6125C33.3408 26.7371 32.6734 26.7643 32.1934 26.4972C31.991 26.3653 31.8551 26.1844 31.7854 25.9539C31.7595 25.6972 31.8036 25.4802 31.8635 25.2305C31.8729 25.1901 31.8824 25.1497 31.8921 25.1081C31.9129 25.0192 31.9339 24.9303 31.955 24.8415C31.9891 24.6981 32.0227 24.5546 32.0563 24.4111C32.1766 23.8982 32.2986 23.3857 32.4212 22.8733C32.4916 22.5792 32.5618 22.2849 32.6319 21.9907C32.684 21.7719 32.7365 21.5532 32.7892 21.3346C32.8224 21.1969 32.8552 21.0591 32.888 20.9213C32.9034 20.8566 32.919 20.792 32.9347 20.7275C32.9563 20.6386 32.9775 20.5496 32.9985 20.4606C33.0049 20.4347 33.0113 20.4088 33.0179 20.3821C33.052 20.2351 33.0666 20.1165 33.0216 19.971C32.854 19.8714 32.7201 19.8553 32.5237 19.8588C32.4998 19.8592 32.4759 19.8595 32.4513 19.8599C32.2093 19.8654 31.9687 19.8856 31.7278 19.9082C29.0173 20.1599 26.2543 20.1401 23.5467 19.8652C23.3145 19.8425 23.0845 19.8294 22.8513 19.8282C22.8267 19.828 22.8021 19.8278 22.7767 19.8276C22.5939 19.8283 22.4622 19.8494 22.3023 19.9367C22.2211 20.0575 22.2246 20.1007 22.2263 20.2435C22.2266 20.2656 22.2269 20.2877 22.2271 20.3105C22.2332 20.6868 22.2524 21.063 22.2692 21.4389C22.2745 21.5584 22.2797 21.6779 22.2849 21.7973C22.2939 22.0039 22.303 22.2104 22.3121 22.4169C22.3265 22.7437 22.3406 23.0705 22.3547 23.3973C22.3596 23.5094 22.3644 23.6216 22.3692 23.7337C22.3711 23.7757 22.371 23.7757 22.3729 23.8185C22.3866 24.1365 22.4004 24.4544 22.4142 24.7723C22.4161 24.8158 22.4161 24.8158 22.418 24.8602C22.4384 25.3309 22.4591 25.8016 22.4799 26.2723C22.5012 26.7567 22.5222 27.2411 22.5429 27.7255C22.5557 28.0237 22.5687 28.3219 22.5821 28.6201C22.5913 28.8245 22.6001 29.0288 22.6087 29.2332C22.6136 29.3509 22.6187 29.4686 22.6242 29.5863C22.6301 29.7142 22.6354 29.8422 22.6406 29.9702C22.6433 30.0251 22.6433 30.0251 22.6461 30.0812C22.6647 30.5781 22.58 31.0142 22.2639 31.4112C21.8559 31.8388 21.2903 32.0278 20.7049 32.0455C20.5343 32.0485 20.3637 32.0473 20.193 32.046C20.1293 32.0458 20.0656 32.0455 20.0019 32.0452C19.5346 32.0429 19.0674 32.035 18.6002 32.0246C18.5701 32.0239 18.5399 32.0232 18.5088 32.0225C18.0096 32.0111 17.5107 31.9919 17.0118 31.971C16.8161 31.0081 16.6221 30.0449 16.4348 29.0803C16.4272 29.0413 16.4196 29.0023 16.4117 28.9621C16.3904 28.8523 16.3691 28.7426 16.3479 28.6328C16.3416 28.6002 16.3352 28.5675 16.3286 28.5339C16.3229 28.5042 16.3172 28.4745 16.3113 28.4439C16.3039 28.4052 16.3039 28.4052 16.2962 28.3657C16.2857 28.3024 16.2856 28.3024 16.2856 28.2339C16.5645 28.265 16.8428 28.2961 17.1198 28.341C17.373 28.38 17.6139 28.4073 17.8417 28.2682C17.9856 28.0367 17.9084 27.7229 17.866 27.4682C17.8611 27.4379 17.8563 27.4076 17.8513 27.3763C17.8352 27.2755 17.8187 27.1747 17.8022 27.074C17.7904 27.0012 17.7787 26.9284 17.767 26.8556C17.7352 26.6574 17.7029 26.4593 17.6707 26.2612C17.6364 26.0501 17.6024 25.8389 17.5683 25.6278C17.5106 25.2698 17.4527 24.9119 17.3946 24.554C17.3149 24.0628 17.2354 23.5715 17.156 23.0802C17.1348 22.9488 17.1136 22.8175 17.0924 22.6861C17.0289 22.2934 16.9654 21.9007 16.902 21.508C16.874 21.3346 16.846 21.1611 16.8179 20.9877C16.7971 20.8588 16.7763 20.7299 16.7555 20.601C16.6795 20.1311 16.6034 19.6613 16.5271 19.1914C16.474 18.8646 16.4212 18.5377 16.3684 18.2108C16.3378 18.0207 16.307 17.8305 16.276 17.6405C16.2474 17.4655 16.2192 17.2905 16.1911 17.1155C16.1809 17.0521 16.1705 16.9886 16.1601 16.9252C16.031 16.1398 16.031 16.1398 16.1149 15.8803C16.3793 15.5167 16.753 15.4613 17.1847 15.4667L17.2777 15.4655Z" fill="#E94E1A"/>
<path d="M1.86648 10.7482C2.02346 10.6703 2.23274 10.6954 2.39974 10.7325C2.92153 10.9174 3.3847 11.3356 3.78639 11.6993C3.84086 11.7486 3.89576 11.7974 3.95117 11.8456C4.14104 12.0112 4.32184 12.1848 4.50092 12.3617C4.52392 12.3844 4.54691 12.407 4.57061 12.4304C4.72512 12.584 4.87075 12.7434 5.01311 12.9082C5.03138 12.9289 5.04966 12.9497 5.06849 12.9711C5.43704 13.3916 5.7497 13.8439 6.05046 14.3139L6.09723 14.3869C6.54418 15.0953 6.73577 15.886 6.9473 16.6847C6.99173 16.8521 7.03675 17.0192 7.08173 17.1864C7.13918 17.4 7.1966 17.6137 7.25381 17.8274C7.4556 18.5808 7.66142 19.3332 7.86751 20.0855C7.96239 20.4319 8.05713 20.7783 8.15187 21.1247C8.17293 21.2018 8.19401 21.2788 8.21508 21.3558C8.36364 21.899 8.5119 22.4422 8.65991 22.9854C8.72156 23.2117 8.78326 23.438 8.84495 23.6643C8.89344 23.8421 8.94191 24.02 8.99029 24.1979C9.08337 24.5401 9.17674 24.8822 9.27127 25.224C9.30529 25.347 9.33912 25.4701 9.37211 25.5935C9.40296 25.7086 9.43457 25.8236 9.46642 25.9385C9.47839 25.9846 9.47838 25.9846 9.4906 26.0317C9.58672 26.3706 9.78936 26.6485 10.0961 26.8282C10.31 26.9381 10.5248 26.9999 10.7593 27.0503C10.8256 27.0656 10.8919 27.081 10.9582 27.0963C11.0614 27.1201 11.1646 27.1433 11.2682 27.1656C11.369 27.1874 11.4694 27.2108 11.5698 27.2346C11.6008 27.2409 11.6318 27.2471 11.6637 27.2535C11.8704 27.3044 11.8704 27.3044 11.9344 27.4068C11.9628 27.4878 11.9814 27.5669 11.9979 27.651C12.0114 27.7025 12.025 27.7539 12.0387 27.8053C12.0518 27.8591 12.0648 27.913 12.0776 27.9669C12.0847 27.9962 12.0918 28.0256 12.0992 28.0557C12.1217 28.1487 12.1442 28.2416 12.1665 28.3346C12.2569 28.7102 12.3495 29.0844 12.4555 29.456C12.5228 29.6928 12.581 29.9315 12.6376 30.171C12.7106 30.4761 12.785 30.78 12.8763 31.0803C12.9173 31.219 12.9449 31.357 12.9684 31.4998C12.9744 31.5367 12.9805 31.5736 12.9868 31.6116C12.9937 31.6538 12.9937 31.6538 13.0007 31.6967C12.3538 31.6528 11.7105 31.5892 11.0665 31.5146C11.0201 31.5092 10.9738 31.5039 10.9275 31.4986C9.87607 31.3774 9.87606 31.3774 9.35377 31.3062C9.30503 31.2995 9.25626 31.293 9.20749 31.2866C8.5881 31.2048 8.10786 30.9764 7.64106 30.5653L7.56907 30.5026C6.64526 29.6445 6.34193 28.3921 6.02621 27.2276C5.97917 27.0545 5.93162 26.8815 5.88412 26.7086C5.82509 26.4935 5.7661 26.2785 5.70731 26.0634C5.52754 25.4057 5.34502 24.7489 5.16185 24.0922C5.0842 23.8137 5.00672 23.5353 4.92923 23.2568C4.91214 23.1954 4.89505 23.134 4.87797 23.0726C4.69205 22.4046 4.50676 21.7364 4.32154 21.0682C4.0657 20.1452 3.80931 19.2223 3.55248 18.2996C3.20328 17.045 2.85466 15.7903 2.50699 14.5353C2.41777 14.2133 2.32843 13.8913 2.2389 13.5693C2.18261 13.3668 2.12638 13.1643 2.0702 12.9618C2.03785 12.8452 2.00543 12.7286 1.97295 12.6121C1.93784 12.4861 1.9029 12.36 1.86796 12.234C1.8577 12.1972 1.84743 12.1605 1.83686 12.1227C1.76158 11.8503 1.7207 11.5982 1.71736 11.316L1.71432 11.2308C1.71221 11.0294 1.74838 10.913 1.86648 10.7482Z" fill="#E94E1A"/>
</svg>
